<?xml version="1.0" encoding="UTF-8"?>
<!DOCTYPE svg PUBLIC "-//W3C//DTD SVG 1.1//EN" "http://www.w3.org/Graphics/SVG/1.1/DTD/svg11.dtd">
<!-- Creator: CorelDRAW -->
<svg xmlns="http://www.w3.org/2000/svg" xml:space="preserve" width="2048px" height="2048px" style="shape-rendering:geometricPrecision; text-rendering:geometricPrecision; image-rendering:optimizeQuality; fill-rule:evenodd; clip-rule:evenodd"
viewBox="0 0 2048 2048"
 xmlns:xlink="http://www.w3.org/1999/xlink">
 <defs>
  <style type="text/css">
   <![CDATA[
    .fil7 {fill:none}
    .fil4 {fill:#424343}
    .fil6 {fill:#5C5C5C}
    .fil3 {fill:#6B6B6B}
    .fil0 {fill:#959595}
    .fil2 {fill:#A2A2A2}
    .fil1 {fill:#BBBBBC}
    .fil5 {fill:#CBCBCC}
   ]]>
  </style>
 </defs>
 <g id="Layer_x0020_1">
  <metadata id="CorelCorpID_0Corel-Layer"/>
  <path class="fil0" d="M464.729 696.438l0 591.123c0,25.454 -20.6457,46.0985 -46.0996,46.0985 -25.454,0 -46.0996,-20.6445 -46.0996,-46.0985l0 -591.123c0,-25.454 20.6457,-46.0985 46.0996,-46.0985 25.454,0 46.0996,20.6445 46.0996,46.0985z"/>
  <path class="fil1" d="M595.985 511.713l0 960.572c0,25.454 -20.6457,46.0985 -46.0996,46.0985 -25.454,0 -46.0996,-20.6445 -46.0996,-46.0985l0 -960.572c0,-25.454 20.6457,-46.0985 46.0996,-46.0985 25.454,0 46.0996,20.6445 46.0996,46.0985z"/>
  <path class="fil2" d="M727.238 696.438l0 591.123c0,25.454 -20.6457,46.0985 -46.0996,46.0985 -25.454,0 -46.0996,-20.6445 -46.0996,-46.0985l0 -591.123c0,-25.454 20.6457,-46.0985 46.0996,-46.0985 25.454,0 46.0996,20.6445 46.0996,46.0985z"/>
  <path class="fil3" d="M858.493 844.22l0 295.559c0,25.454 -20.6457,46.0996 -46.0996,46.0996 -25.454,0 -46.0996,-20.6457 -46.0996,-46.0996l0 -295.559c0,-25.454 20.6457,-46.0996 46.0996,-46.0996 25.454,0 46.0996,20.6457 46.0996,46.0996z"/>
  <path class="fil4" d="M989.748 920.135l0 143.728c0,25.454 -20.6457,46.0996 -46.0996,46.0996 -25.454,0 -46.0996,-20.6457 -46.0996,-46.0996l0 -143.728c0,-25.454 20.6457,-46.0996 46.0996,-46.0996 25.454,0 46.0996,20.6457 46.0996,46.0996z"/>
  <path class="fil5" d="M1121 696.438l0 591.123c0,25.454 -20.6457,46.0985 -46.0996,46.0985 -25.454,0 -46.0996,-20.6445 -46.0996,-46.0985l0 -591.123c0,-25.454 20.6457,-46.0985 46.0996,-46.0985 25.454,0 46.0996,20.6445 46.0996,46.0985z"/>
  <path class="fil2" d="M1252.26 511.713l0 960.572c0,25.454 -20.6457,46.0985 -46.0996,46.0985 -25.454,0 -46.0996,-20.6445 -46.0996,-46.0985l0 -960.572c0,-25.454 20.6457,-46.0985 46.0996,-46.0985 25.454,0 46.0996,20.6445 46.0996,46.0985z"/>
  <path class="fil1" d="M1383.51 696.438l0 591.123c0,25.454 -20.6457,46.0985 -46.0996,46.0985 -25.454,0 -46.0996,-20.6445 -46.0996,-46.0985l0 -591.123c0,-25.454 20.6457,-46.0985 46.0996,-46.0985 25.454,0 46.0996,20.6445 46.0996,46.0985z"/>
  <path class="fil6" d="M1514.77 889.769l0 204.461c0,25.454 -20.6457,46.0996 -46.0996,46.0996 -25.454,0 -46.0996,-20.6457 -46.0996,-46.0996l0 -204.461c0,-25.454 20.6457,-46.0996 46.0996,-46.0996 25.454,0 46.0996,20.6457 46.0996,46.0996z"/>
  <path class="fil3" d="M1646.02 696.438l0 591.123c0,25.454 -20.6457,46.0985 -46.0996,46.0985 -25.454,0 -46.0996,-20.6445 -46.0996,-46.0985l0 -591.123c0,-25.454 20.6457,-46.0985 46.0996,-46.0985 25.454,0 46.0996,20.6445 46.0996,46.0985z"/>
  <path class="fil4" d="M1777.28 889.769l0 204.461c0,25.454 -20.6457,46.0996 -46.0996,46.0996 -25.454,0 -46.0996,-20.6457 -46.0996,-46.0996l0 -204.461c0,-25.454 20.6457,-46.0996 46.0996,-46.0996 25.454,0 46.0996,20.6457 46.0996,46.0996z"/>
  <path class="fil4" d="M333.475 844.22l0 295.559c0,25.454 -20.6457,46.0996 -46.0996,46.0996 -25.454,0 -46.0996,-20.6457 -46.0996,-46.0996l0 -295.559c0,-25.454 20.6457,-46.0996 46.0996,-46.0996 25.454,0 46.0996,20.6457 46.0996,46.0996z"/>
 </g>
 <rect class="fil7" width="2048" height="2048"/>
</svg>
